<?xml version="1.0" standalone="no"?>
<!DOCTYPE svg PUBLIC "-//W3C//DTD SVG 20010904//EN"
 "http://www.w3.org/TR/2001/REC-SVG-20010904/DTD/svg10.dtd">
<svg version="1.0" xmlns="http://www.w3.org/2000/svg"
 width="512.000000pt" height="512.000000pt" viewBox="0 0 512.000000 512.000000"
 preserveAspectRatio="xMidYMid meet">
<metadata>
Created by potrace 1.14, written by Peter Selinger 2001-2017
</metadata>
<g transform="translate(0.000000,512.000000) scale(0.100000,-0.100000)"
fill="#000000" stroke="none">
<path d="M3331 4529 c-13 -5 -67 -12 -119 -14 -52 -3 -99 -8 -105 -12 -6 -3
-56 -7 -111 -8 -56 -1 -132 -6 -171 -11 -95 -11 -153 -6 -197 16 l-38 20 -35
-32 c-30 -26 -42 -30 -78 -27 -23 1 -109 1 -192 -1 -362 -7 -490 -3 -552 21
-14 5 -25 4 -28 -2 -4 -5 -15 -7 -26 -4 -11 4 -133 6 -272 5 -313 -2 -314 -2
-357 6 -20 3 -60 -1 -92 -9 -31 -8 -80 -13 -109 -11 -57 3 -173 4 -176 1 -1
-1 -3 -15 -5 -32 -5 -52 28 -60 237 -59 99 0 212 1 250 2 114 3 128 2 142 -10
7 -6 16 -8 20 -5 3 4 12 2 19 -4 14 -12 10 -49 -11 -90 -21 -39 -19 -52 10
-77 29 -25 31 -35 10 -52 -26 -21 -18 -58 15 -75 24 -13 30 -22 30 -49 0 -19
2 -41 6 -49 3 -8 -6 -28 -20 -44 -23 -27 -24 -32 -11 -43 8 -7 15 -19 15 -27
0 -11 7 -13 24 -9 30 7 33 -1 31 -88 l-2 -69 -61 -57 c-46 -43 -62 -65 -62
-84 0 -35 21 -42 72 -22 59 24 59 23 62 -154 1 -36 8 -86 15 -113 8 -29 12
-74 9 -116 -4 -48 -1 -73 8 -86 19 -25 18 -28 -11 -59 -14 -15 -25 -35 -25
-45 0 -9 -7 -26 -15 -37 -16 -21 -20 -74 -7 -74 5 0 19 9 32 20 46 40 58 13
59 -142 1 -83 -3 -113 -16 -136 -16 -28 -16 -32 4 -87 19 -52 20 -59 6 -73
-15 -16 -14 -65 5 -127 15 -51 6 -84 -36 -124 -34 -33 -38 -42 -34 -75 3 -28
11 -40 32 -51 32 -16 42 -36 29 -56 -5 -8 -9 -25 -9 -38 0 -13 -8 -31 -18 -40
-26 -22 -44 -58 -49 -97 -4 -26 1 -35 26 -54 17 -12 31 -28 31 -37 0 -28 -40
-80 -71 -93 -28 -12 -30 -16 -27 -59 l3 -46 50 -1 c48 -1 50 -2 53 -30 2 -22
-6 -40 -30 -68 -43 -51 -45 -81 -7 -133 34 -49 31 -61 -27 -121 -18 -18 -31
-39 -28 -46 7 -18 -30 -48 -50 -40 -9 3 -16 12 -16 20 0 20 -26 6 -38 -21 -8
-18 -8 -25 1 -28 6 -2 10 -17 9 -34 -3 -40 20 -49 67 -25 35 18 71 19 71 2 0
-16 -88 -127 -131 -164 -70 -60 -94 -69 -199 -72 -105 -2 -149 -7 -242 -28
-35 -8 -95 -20 -135 -26 -54 -9 -74 -16 -78 -29 -8 -28 4 -50 32 -57 25 -7
206 1 253 10 103 21 236 38 290 37 36 0 81 3 100 8 19 4 47 4 63 0 15 -4 27
-3 27 1 0 17 46 15 83 -3 30 -16 40 -17 53 -7 15 13 104 22 184 19 84 -3 244
-1 410 5 91 4 178 3 194 -1 19 -6 54 -5 95 3 35 7 89 10 120 7 31 -3 65 -5 76
-5 32 0 168 19 187 27 9 4 57 8 105 10 48 2 110 6 137 10 51 6 138 43 143 61
2 6 -6 23 -18 38 -20 26 -26 28 -68 22 -75 -11 -136 -15 -333 -21 -179 -6
-189 -5 -230 16 -24 12 -74 30 -111 40 -38 9 -74 24 -80 32 -7 8 -26 19 -43
26 -53 21 -68 60 -68 186 -1 88 3 119 18 153 l19 43 -22 40 c-30 53 -32 130
-4 162 29 33 29 81 -1 100 -32 21 -39 71 -16 123 10 23 23 45 29 48 18 12 13
62 -9 81 -27 24 -27 107 -1 155 48 86 49 101 6 82 l-26 -12 5 61 c4 49 10 66
31 85 29 26 28 24 15 58 -9 24 -7 26 15 26 14 0 25 5 25 11 0 7 -10 9 -25 5
-17 -4 -25 -2 -25 6 0 7 -9 19 -20 26 -23 14 -26 50 -8 117 9 34 9 53 1 74
-10 28 -9 30 20 42 41 17 91 18 158 3 31 -8 81 -13 111 -13 102 2 179 -33 225
-101 19 -27 40 -44 67 -52 50 -15 129 -96 183 -186 38 -63 94 -219 108 -297 2
-16 7 -39 9 -50 2 -11 7 -47 11 -80 4 -32 8 -67 10 -77 2 -9 5 -45 7 -78 2
-47 8 -66 25 -82 21 -20 22 -20 48 -2 23 17 25 23 20 64 -8 55 -12 88 -19 165
-3 33 -8 71 -11 85 -3 14 -7 84 -9 155 -2 72 -9 149 -15 173 -7 24 -9 53 -5
65 4 12 7 77 5 144 -1 76 2 131 9 144 9 16 8 28 -4 54 -20 42 -20 85 -1 132 9
20 12 45 8 57 -11 34 -11 244 0 331 5 44 11 127 13 185 8 211 14 291 24 309
17 33 12 79 -12 101 -52 48 -71 6 -86 -190 -7 -94 -17 -152 -32 -190 -11 -30
-23 -70 -26 -88 -4 -33 -40 -112 -54 -122 -4 -3 -20 -26 -36 -52 -16 -25 -32
-47 -36 -47 -5 -1 -14 -1 -20 -1 -7 0 -26 -21 -42 -48 -17 -26 -48 -62 -69
-81 -22 -19 -59 -65 -83 -102 -38 -59 -49 -70 -85 -79 -51 -14 -426 -22 -434
-10 -3 5 -8 29 -12 55 -5 37 -2 52 14 73 17 24 18 31 7 57 -21 48 -18 129 6
150 30 27 33 50 11 93 -26 52 -19 77 40 134 27 25 49 55 49 66 0 22 -56 75
-70 67 -16 -10 -25 20 -26 90 -1 39 -5 90 -9 115 -6 40 -4 48 19 69 14 14 26
28 26 33 0 4 -17 19 -38 32 -37 23 -39 27 -40 78 0 29 -10 81 -22 115 -17 49
-19 66 -10 83 9 16 8 31 -3 65 -17 47 -20 39 41 95 19 17 22 28 17 60 -6 38
-5 39 34 50 23 6 48 7 63 2 24 -10 101 -1 223 23 79 16 363 24 384 11 7 -5 66
-10 132 -11 147 -4 189 -16 189 -54 0 -43 26 -59 95 -56 78 2 124 -12 131 -41
3 -12 14 -30 25 -40 10 -9 19 -25 19 -36 0 -10 7 -18 15 -18 8 0 15 -9 15 -20
0 -11 4 -20 9 -20 4 0 20 -11 35 -25 34 -31 64 -47 75 -40 5 3 20 -11 32 -32
13 -20 44 -62 69 -92 57 -69 104 -163 129 -259 10 -40 30 -87 43 -105 28 -36
36 -55 42 -109 11 -84 19 -109 43 -127 18 -15 29 -41 44 -108 29 -126 39 -154
65 -189 26 -35 50 -45 82 -33 21 8 22 14 23 126 1 199 0 401 -2 545 -2 127 -1
140 18 160 29 33 32 50 11 68 -16 13 -19 34 -23 145 -7 184 -7 188 11 230 11
27 12 40 4 45 -6 4 -12 33 -14 66 -2 66 -39 153 -65 155 -67 5 -97 3 -176 -7
-78 -11 -93 -10 -116 3 -19 11 -31 13 -44 5 -14 -7 -25 -6 -41 4 -16 11 -73
16 -245 18 -126 3 -234 0 -248 -5z m309 -93 c-29 -28 -98 -44 -140 -32 -34 9
-37 11 -22 22 24 17 49 22 117 23 51 1 57 -1 45 -13z m364 -195 c10 -15 -22
-20 -34 -5 -10 11 -9 14 8 14 12 0 23 -4 26 -9z m151 -51 c3 -4 -1 -10 -8 -13
-8 -3 -18 3 -25 13 -9 15 -8 17 9 13 11 -3 21 -9 24 -13z m-2499 -9 c-8 -12
-56 -20 -75 -13 -11 5 -7 8 14 13 45 10 67 10 61 0z m2338 3 c30 -12 16 -32
-32 -48 -31 -11 -66 -33 -95 -63 -47 -47 -70 -51 -79 -15 -5 16 1 21 31 26 27
4 46 17 74 50 20 25 47 47 59 49 13 2 24 5 25 6 1 0 8 -2 17 -5z m-164 -53 c0
-12 -41 -22 -54 -13 -6 4 3 10 19 13 17 4 31 7 33 8 1 0 2 -3 2 -8z m332 -30
c4 -1 2 -14 -3 -31 -13 -36 -75 -91 -135 -120 -24 -12 -41 -26 -38 -31 3 -5
11 -6 17 -3 9 5 9 4 1 -5 -6 -6 -27 -14 -47 -18 -47 -7 -87 17 -87 53 0 32 80
116 107 114 37 -4 63 0 63 10 0 31 27 37 122 31z m-2472 -45 c0 -17 -13 -22
-76 -31 -44 -7 -47 -6 -34 8 14 14 67 34 98 36 6 1 12 -5 12 -13z m60 4 c-20
-13 -43 -13 -35 0 3 6 16 10 28 10 18 0 19 -2 7 -10z m200 -7 c-1 -23 -70 -60
-84 -46 -3 3 -10 -5 -15 -18 -13 -35 -39 -55 -95 -74 -27 -9 -62 -26 -77 -37
-15 -12 -34 -18 -42 -15 -21 8 -57 -34 -55 -63 2 -41 -2 -60 -9 -58 -5 1 -18
-3 -29 -10 -29 -16 -51 7 -35 37 6 11 11 33 11 48 0 16 10 40 22 52 23 26 107
67 151 75 52 9 72 19 114 56 40 35 86 57 126 59 9 1 17 -2 17 -6z m179 -46 c6
-8 12 -24 13 -37 3 -19 -4 -26 -42 -39 -25 -9 -52 -21 -60 -26 -8 -5 -37 -18
-65 -27 -27 -10 -55 -24 -60 -32 -6 -7 -25 -17 -43 -21 -18 -3 -45 -18 -61
-31 -27 -22 -90 -54 -107 -54 -16 0 43 53 79 71 21 11 55 35 75 53 20 19 53
38 73 44 20 5 52 26 73 46 31 32 85 64 107 66 4 0 12 -6 18 -13z m2050 -19
c-1 -34 -11 -54 -40 -77 -24 -18 -29 -19 -75 -6 -27 7 -41 14 -31 14 27 1 78
31 72 41 -6 9 50 50 68 50 4 0 7 -10 6 -22z m-2019 -138 c0 -5 3 -15 6 -23 6
-16 -20 -35 -59 -43 -12 -2 -27 -11 -33 -19 -6 -8 -23 -15 -38 -15 -15 0 -39
-9 -54 -19 -15 -11 -43 -22 -62 -25 -19 -4 -57 -20 -85 -36 -128 -74 -180 -97
-205 -89 -14 4 -18 7 -9 8 9 1 36 18 60 39 28 25 62 43 94 51 28 7 64 23 81
36 17 13 43 27 57 30 14 4 31 13 38 21 6 8 16 14 21 14 6 0 23 11 40 25 16 14
40 25 54 25 13 0 31 8 40 19 16 18 54 18 54 1z m1974 -19 c4 -5 -12 -25 -34
-44 -40 -34 -52 -54 -26 -44 8 3 17 -1 20 -9 7 -19 -18 -18 -34 1 -17 20 -30
19 -57 -7 -20 -19 -26 -20 -33 -8 -8 12 -5 52 5 87 3 8 20 11 49 8 27 -2 51 2
63 10 21 17 39 19 47 6z m33 -108 c3 -9 0 -37 -7 -62 -7 -25 -13 -59 -14 -74
-2 -30 -60 -92 -77 -81 -14 8 -10 47 6 68 12 16 12 23 -1 48 -9 17 -13 32 -10
35 3 3 -2 12 -10 21 -19 18 -3 32 38 32 15 0 33 7 40 15 17 19 27 19 35 -2z
m-1987 -68 c-7 -8 -17 -15 -22 -15 -5 0 -26 -11 -46 -25 -20 -14 -47 -25 -59
-25 -13 0 -23 -5 -23 -11 0 -6 -6 -9 -12 -6 -7 2 -23 0 -35 -4 -13 -5 -25 -4
-28 1 -4 6 2 13 12 16 10 3 53 23 97 45 82 41 140 53 116 24z m-422 -106 c-10
-5 -18 -16 -18 -23 0 -7 -18 -18 -41 -25 -22 -7 -49 -21 -60 -32 -22 -22 -89
-38 -89 -22 0 17 24 32 117 73 84 37 127 51 91 29z m440 -75 c3 -27 -2 -32
-60 -61 -35 -17 -85 -38 -112 -47 -28 -10 -56 -25 -63 -36 -7 -10 -35 -26 -62
-35 -27 -9 -54 -22 -60 -29 -7 -8 -25 -16 -41 -19 -16 -4 -38 -14 -49 -23 -23
-20 -51 -27 -51 -12 0 14 26 38 43 38 7 0 24 11 37 25 13 14 29 24 34 22 6 -2
16 8 22 23 9 20 22 29 49 34 52 10 105 35 140 67 17 16 43 30 59 33 29 5 60
26 41 26 -6 1 4 7 20 15 40 18 49 14 53 -21z m1976 -93 c-1 -42 -2 -89 -3
-106 l-2 -30 -20 25 c-14 16 -19 33 -16 50 3 14 -1 34 -9 44 -18 26 -18 50 2
89 37 71 50 51 48 -72z m-2374 3 c0 -1 -4 -13 -9 -26 -7 -20 -17 -25 -55 -27
-38 -1 -45 1 -40 14 3 8 13 15 20 15 8 0 17 6 20 14 5 12 64 21 64 10z m320
-59 c0 -8 -58 -35 -75 -35 -29 0 -15 16 23 27 47 13 52 14 52 8z m-449 -22
c-33 -60 -98 -101 -115 -74 -13 20 9 45 58 67 62 28 69 29 57 7z m323 -47 c-6
-15 -47 -37 -116 -62 -26 -9 -56 -25 -67 -35 -15 -14 -28 -18 -46 -13 l-26 6
21 23 c11 12 39 28 60 35 22 7 45 19 51 27 6 7 21 13 33 13 11 0 28 5 36 10
23 15 60 12 54 -4z m198 -12 c-13 -22 -72 -48 -72 -31 0 14 48 46 68 47 9 0
10 -5 4 -16z m-32 -91 c-1 -20 -41 -52 -72 -58 -30 -6 -37 -3 -52 19 -15 24
-15 27 -1 32 9 4 28 4 43 1 15 -2 36 -1 47 3 26 11 35 12 35 3z m-462 -41 c2
-6 -24 -24 -57 -41 -34 -16 -61 -26 -61 -20 0 5 6 9 13 9 6 0 21 13 32 30 25
38 63 50 73 22z m312 -31 c0 -12 -10 -20 -29 -24 -35 -7 -64 -63 -40 -78 11
-6 15 -1 17 21 3 31 11 37 28 20 7 -7 23 -5 49 6 21 9 58 18 82 20 24 2 47 5
51 8 5 3 8 -9 8 -27 -1 -26 -8 -35 -41 -54 -22 -12 -52 -23 -67 -23 -16 0 -37
-9 -48 -20 -15 -15 -33 -20 -70 -20 -28 0 -49 3 -49 8 1 4 1 17 0 30 -2 33
-19 18 -27 -23 -3 -19 -10 -35 -15 -35 -4 0 -17 -9 -28 -21 -11 -12 -24 -19
-29 -15 -5 3 -18 -1 -28 -9 -10 -8 -28 -14 -39 -14 -19 0 -19 1 4 19 13 11 30
20 37 20 19 0 35 43 21 52 -6 4 -32 -9 -58 -28 -26 -19 -73 -43 -103 -53 l-56
-18 -6 23 c-3 13 -1 39 6 58 9 30 19 37 61 51 28 10 65 32 84 50 24 25 44 35
76 38 25 2 73 20 108 40 68 38 101 37 101 -2z m1096 -29 c-32 -32 -35 -17 -4
21 13 16 24 23 27 16 2 -6 -8 -23 -23 -37z m1 -165 c-8 -13 -33 -32 -54 -42
-21 -10 -40 -21 -43 -25 -3 -4 -16 -11 -28 -15 -21 -6 -22 -5 -14 12 6 10 18
26 29 34 22 20 116 69 122 63 2 -2 -3 -14 -12 -27z m-1092 -26 c16 -1 14 -4
-10 -15 -16 -7 -63 -36 -104 -64 -41 -28 -77 -49 -82 -46 -4 2 -15 -6 -24 -20
-17 -26 -64 -49 -105 -50 -14 -1 -35 -7 -48 -14 -19 -11 -26 -11 -38 -1 -13
11 -8 15 30 30 24 9 64 32 88 51 24 20 73 49 109 66 36 17 73 40 83 50 11 13
28 19 49 17 18 -2 41 -3 52 -4z m155 -58 c0 -17 -33 -33 -69 -33 -36 0 -42 7
-30 38 6 16 16 22 39 22 17 0 30 5 30 13 1 16 30 -23 30 -40z m-456 19 c8 -13
-13 -39 -21 -27 -5 6 -19 16 -33 22 -24 11 -24 12 12 12 20 1 39 -3 42 -7z
m1290 -43 c-3 -5 -14 -9 -25 -9 -10 0 -19 -4 -19 -9 0 -13 -53 2 -57 16 -2 6
4 13 14 15 30 6 93 -4 87 -13z m-911 -48 c5 -1 5 -7 0 -13 -4 -7 -8 -16 -8
-20 0 -5 -3 -8 -7 -8 -5 0 -16 0 -27 0 -10 0 -26 12 -35 26 l-17 25 43 -5 c24
-2 47 -5 51 -5z m-93 -56 c-8 -9 -30 -25 -50 -35 -21 -11 -51 -30 -67 -44 -16
-13 -42 -26 -59 -28 -29 -4 -94 -34 -94 -44 0 -2 12 -9 28 -15 27 -11 27 -11
5 -20 -12 -4 -55 -8 -95 -8 l-73 1 38 32 c20 18 76 52 125 76 48 24 92 48 97
54 8 10 62 29 135 49 22 6 25 0 10 -18z m1098 5 c-7 -11 -22 -20 -33 -20 -11
0 -30 -7 -42 -15 -14 -10 -24 -12 -28 -5 -3 5 -1 10 6 10 6 0 22 11 35 25 13
14 34 25 49 25 23 0 24 -2 13 -20z m-1002 -167 c-15 -12 -33 -23 -41 -23 -7 0
-26 -15 -42 -33 -15 -18 -46 -42 -68 -52 -22 -10 -49 -28 -60 -39 -11 -12 -30
-22 -43 -23 -13 -1 -44 -14 -70 -30 -26 -15 -54 -29 -62 -29 -8 -1 -20 -2 -27
-3 -6 -1 -16 -14 -21 -30 -8 -23 -15 -28 -30 -24 -11 2 -23 0 -27 -7 -12 -19
-32 7 -27 37 3 22 21 39 77 76 40 26 89 52 109 58 20 5 36 13 36 17 0 12 54
40 68 35 7 -3 21 2 30 10 9 8 34 20 55 25 21 6 47 22 58 35 10 14 27 24 37 23
9 -2 26 0 37 4 34 13 40 -2 11 -27z m74 -73 c0 -14 -14 -27 -46 -43 l-46 -22
-19 24 c-25 30 -24 37 4 39 12 1 34 3 49 4 14 2 30 6 34 11 13 13 24 7 24 -13z
m908 4 c21 -15 30 -48 14 -57 -13 -9 -52 30 -52 52 0 25 8 26 38 5z m-1038
-74 c-20 -13 -43 -13 -35 0 3 6 16 10 28 10 18 0 19 -2 7 -10z m127 -11 c19
-19 -1 -93 -25 -94 -34 -3 -52 -19 -52 -46 0 -16 3 -28 8 -27 4 1 23 -2 43 -6
l37 -8 -2 -51 c-2 -64 -7 -72 -59 -96 -23 -11 -51 -28 -62 -38 -11 -10 -38
-26 -59 -36 -21 -10 -48 -29 -58 -42 -11 -14 -37 -29 -59 -35 -21 -6 -53 -24
-69 -40 -20 -20 -36 -27 -48 -23 -14 6 -15 4 -4 -9 11 -14 8 -17 -20 -27 -18
-6 -40 -21 -49 -32 -11 -16 -29 -22 -66 -24 -68 -4 -81 6 -48 36 14 13 40 38
57 54 18 17 36 31 42 31 6 1 18 2 26 3 18 1 42 37 46 69 2 21 -6 26 -33 23 -6
-1 -15 4 -19 10 -5 9 -2 10 9 6 11 -4 17 -1 17 7 0 22 34 46 56 40 14 -4 23 0
28 11 5 14 14 16 41 11 21 -4 35 -3 35 3 0 14 110 91 131 91 23 0 49 27 49 51
0 16 -3 17 -19 7 -16 -10 -25 -9 -46 2 -18 10 -28 11 -33 3 -4 -5 -18 -14 -31
-18 l-23 -7 27 -18 c23 -15 24 -18 9 -24 -9 -3 -25 -4 -34 -1 -11 3 -30 -5
-48 -20 -16 -14 -37 -25 -45 -25 -20 0 -87 -39 -87 -51 0 -5 -8 -9 -19 -9 -10
0 -29 -8 -42 -19 -13 -10 -41 -20 -63 -23 l-38 -4 6 55 c10 88 35 113 125 127
47 8 108 39 121 63 13 25 77 64 90 56 6 -4 19 -1 28 7 27 23 120 68 141 68 10
0 24 7 31 15 15 18 42 19 57 4z m-62 -435 c6 8 21 17 35 21 l25 8 -26 -25
c-32 -30 -62 -39 -100 -31 -35 7 -36 19 -6 44 22 18 22 18 42 -6 17 -20 22
-22 30 -11z m-445 5 c0 -6 13 -8 30 -5 35 5 36 2 11 -25 -18 -19 -20 -19 -60
-3 -38 15 -40 18 -24 30 22 16 43 18 43 3z m479 -93 c-7 -14 -37 -37 -74 -56
-43 -22 -62 -37 -58 -46 3 -8 14 -14 24 -14 10 0 19 -4 19 -10 0 -13 -4 -13
-46 5 -33 13 -38 13 -90 -12 -49 -23 -96 -65 -106 -94 -2 -6 -19 -12 -38 -14
-24 -2 -57 -20 -111 -63 -73 -57 -78 -59 -93 -43 -9 10 -16 27 -16 38 0 23 96
133 115 133 22 0 101 39 119 58 9 11 33 22 52 25 20 3 51 18 69 32 19 14 38
25 43 25 4 0 19 12 32 27 16 19 25 23 28 14 2 -7 -2 -17 -9 -22 -9 -6 -1 -6
21 -2 19 3 45 13 57 20 12 8 27 12 32 9 5 -4 12 -2 16 4 13 21 24 9 14 -14z
m14 -163 c-11 -33 -46 -53 -95 -53 -33 0 -48 4 -48 13 0 17 74 53 116 55 28 2
33 0 27 -15z m-70 -113 c7 0 4 -5 -6 -11 -10 -6 -22 -20 -26 -31 -5 -13 -18
-22 -35 -24 -15 -1 -34 -12 -44 -24 -9 -11 -33 -23 -52 -26 -23 -4 -49 -20
-75 -45 -23 -21 -48 -39 -56 -39 -9 0 -31 -19 -49 -41 -31 -40 -35 -41 -76
-35 -36 5 -44 3 -49 -13 -9 -30 -35 -48 -45 -32 -12 21 -1 48 26 60 13 6 24
15 24 21 0 5 8 10 17 10 9 0 38 23 65 50 26 28 56 50 66 50 10 0 29 11 42 25
15 15 34 25 52 25 18 0 47 13 74 34 24 19 52 33 62 32 9 -2 23 3 31 11 7 8 20
12 28 9 8 -3 20 -6 26 -6z m92 -111 c1 -14 5 -31 9 -38 5 -7 -5 -22 -23 -38
-19 -17 -31 -37 -31 -53 -1 -34 -16 -52 -75 -84 -27 -16 -53 -32 -56 -38 -3
-5 -17 -10 -30 -10 -13 -1 -31 -7 -39 -13 -8 -7 -32 -15 -52 -19 -29 -5 -39
-13 -44 -32 -4 -16 -15 -26 -33 -30 -14 -3 -44 -14 -66 -25 -22 -10 -52 -17
-68 -15 -15 2 -30 -1 -33 -5 -10 -17 -63 -39 -78 -33 -17 6 -23 44 -7 44 5 0
23 13 40 29 18 17 42 33 54 37 34 11 127 65 127 74 0 22 31 39 54 30 18 -7 26
-5 30 6 3 8 16 14 29 14 13 0 32 7 43 15 10 8 30 15 44 15 14 1 42 9 63 18
l39 17 -21 19 c-18 16 -25 17 -47 8 -13 -7 -33 -12 -44 -12 -10 0 -25 -9 -34
-21 l-14 -21 -11 20 c-23 43 -14 61 35 73 30 8 49 19 56 34 7 15 19 22 42 23
18 1 52 10 77 21 53 24 63 23 64 -10z m3 -282 c0 -35 -7 -63 -22 -87 -12 -19
-28 -48 -36 -64 -8 -16 -22 -31 -30 -33 -10 -3 -9 -1 3 7 9 6 17 20 17 31 0
16 -5 18 -27 13 -50 -12 -73 -23 -73 -35 0 -8 -13 -9 -42 -5 -41 7 -42 7 -24
-13 22 -24 12 -44 -20 -38 -15 2 -33 -3 -45 -14 -12 -10 -25 -16 -30 -13 -5 3
-19 -2 -31 -10 -12 -9 -29 -16 -38 -16 -8 0 -35 -14 -59 -30 -31 -21 -56 -30
-84 -30 -24 0 -62 -12 -99 -30 -73 -38 -104 -39 -120 -4 -10 22 -9 28 16 50
19 18 31 23 39 16 8 -7 22 -6 42 2 17 7 34 12 38 12 5 -1 15 11 23 27 8 15 21
27 29 27 8 0 22 8 32 19 10 10 32 22 50 26 18 3 68 29 113 56 45 27 88 49 95
49 8 0 16 4 19 9 3 5 14 7 25 4 12 -3 26 5 39 22 17 22 28 26 52 23 26 -4 30
-1 30 18 0 23 36 50 85 65 30 9 34 3 33 -54z m-6 -174 c4 -30 0 -42 -21 -61
-40 -38 -83 -62 -111 -62 -14 0 -40 -9 -57 -20 -18 -11 -33 -18 -33 -16 0 3
-24 -4 -52 -14 -48 -17 -55 -17 -70 -3 -21 19 -24 43 -5 44 36 2 63 11 78 28
11 12 26 17 43 14 16 -3 36 3 55 17 31 22 59 30 121 35 19 2 37 4 39 4 3 1 -3
7 -13 14 -16 12 -17 16 -5 35 19 31 26 27 31 -15z m67 -102 c9 -6 10 -11 2
-15 -15 -10 -53 3 -46 15 8 11 26 11 44 0z m120 -62 c31 -11 41 -25 19 -26 -7
-1 -27 -3 -45 -6 -38 -5 -84 20 -62 34 19 12 50 11 88 -2z"/>
<path d="M1640 2876 c0 -9 40 -13 46 -5 3 5 -6 9 -20 9 -14 0 -26 -2 -26 -4z"/>
<path d="M1707 1814 c-4 -4 -7 -11 -7 -15 0 -10 24 -5 28 6 4 12 -12 18 -21 9z"/>
</g>
</svg>
